<?xml version="1.0" encoding="UTF-8" standalone="no"?>
<!-- Created with Inkscape (http://www.inkscape.org/) -->
<svg xmlns:dc="http://purl.org/dc/elements/1.1/" xmlns:cc="http://web.resource.org/cc/" xmlns:rdf="http://www.w3.org/1999/02/22-rdf-syntax-ns#" xmlns:svg="http://www.w3.org/2000/svg" xmlns="http://www.w3.org/2000/svg" xmlns:xlink="http://www.w3.org/1999/xlink" xmlns:sodipodi="http://sodipodi.sourceforge.net/DTD/sodipodi-0.dtd" xmlns:inkscape="http://www.inkscape.org/namespaces/inkscape" id="svg2" sodipodi:version="0.32" inkscape:version="0.45.1" width="145.22441" height="150.88837" version="1.0" sodipodi:docbase="C:\Documents and Settings\Patils\Desktop" sodipodi:docname="kuba_crystal_earth_recycle.svg" inkscape:export-xdpi="156.52174" inkscape:export-ydpi="156.52174" inkscape:output_extension="org.inkscape.output.svg.inkscape">
  <metadata id="metadata7">
    <rdf:RDF>
      <cc:Work rdf:about="">
        <dc:format>image/svg+xml</dc:format>
        <dc:type rdf:resource="http://purl.org/dc/dcmitype/StillImage"/>
        <cc:license rdf:resource="http://web.resource.org/cc/PublicDomain"/>
        <dc:title>blue cristal ball</dc:title>
        <dc:subject>
          <rdf:Bag>
            <rdf:li>blue</rdf:li>
            <rdf:li>cristal</rdf:li>
            <rdf:li>ball</rdf:li>
            <rdf:li>round</rdf:li>
            <rdf:li>sphere</rdf:li>
            <rdf:li>spheric</rdf:li>
          </rdf:Bag>
        </dc:subject>
        <dc:description>a blue cristal bsll</dc:description>
        <dc:date>14 11 2006</dc:date>
        <dc:creator>
          <cc:Agent>
            <dc:title>molumen</dc:title>
          </cc:Agent>
        </dc:creator>
      </cc:Work>
      <cc:License rdf:about="http://web.resource.org/cc/PublicDomain">
        <cc:permits rdf:resource="http://web.resource.org/cc/Reproduction"/>
        <cc:permits rdf:resource="http://web.resource.org/cc/Distribution"/>
        <cc:permits rdf:resource="http://web.resource.org/cc/DerivativeWorks"/>
      </cc:License>
    </rdf:RDF>
  </metadata>
  <defs id="defs5">
    <linearGradient id="linearGradient3534">
      <stop style="stop-color:#87f862;stop-opacity:1.0000000;" offset="0.0000000" id="stop3536"/>
      <stop style="stop-color:#63aacc;stop-opacity:1.0000000;" offset="0.50000000" id="stop3540"/>
      <stop style="stop-color:#ffffff;stop-opacity:1.0000000;" offset="1.0000000" id="stop3538"/>
    </linearGradient>
    <linearGradient y2="-75.892204" x2="14.183682" y1="-55.518547" x1="-16.716908" gradientTransform="matrix(-0.334949,0.989494,-0.90672,-0.306931,-2.8181013,-4.4875176)" gradientUnits="userSpaceOnUse" id="linearGradient2391" xlink:href="#linearGradient8789" inkscape:collect="always"/>
    <linearGradient y2="11.496791" x2="-155.11566" y1="28.475971" x1="-178.06039" gradientTransform="matrix(-0.689453,-0.784822,0.71917,-0.631776,-2.8181013,-4.4875176)" gradientUnits="userSpaceOnUse" id="linearGradient2377" xlink:href="#linearGradient8789" inkscape:collect="always"/>
    <linearGradient inkscape:collect="always" xlink:href="#linearGradient2165" id="linearGradient10509" gradientUnits="userSpaceOnUse" x1="194.68881" y1="31.85433" x2="194.68881" y2="74.711746"/>
    <linearGradient inkscape:collect="always" xlink:href="#linearGradient4448" id="linearGradient10507" gradientUnits="userSpaceOnUse" x1="181.99649" y1="36.387283" x2="183.27852" y2="53.875359"/>
    <radialGradient inkscape:collect="always" xlink:href="#linearGradient2173" id="radialGradient10505" gradientUnits="userSpaceOnUse" gradientTransform="matrix(0.162441,2.106734,-1.690916,0.262658,228.2627,-371.4298)" cx="180.72482" cy="38.594139" fx="180.72482" fy="38.594139" r="28.884468"/>
    <radialGradient inkscape:collect="always" xlink:href="#linearGradient3598" id="radialGradient10503" gradientUnits="userSpaceOnUse" gradientTransform="matrix(-1.017858,0,6.233031e-7,-1.182413,391.6243,74.3887)" cx="194.07924" cy="26.293318" fx="194.07924" fy="26.293318" r="28.884468"/>
    <linearGradient id="linearGradient8789">
      <stop style="stop-color:#9eed40;stop-opacity:1.0000000;" offset="0.0000000" id="stop8791"/>
      <stop style="stop-color:#52af34;stop-opacity:1.0000000;" offset="1.0000000" id="stop8793"/>
    </linearGradient>
    <linearGradient inkscape:collect="always" id="linearGradient4448">
      <stop style="stop-color:#ffffff;stop-opacity:1;" offset="0" id="stop4450"/>
      <stop style="stop-color:#ffffff;stop-opacity:0;" offset="1" id="stop4452"/>
    </linearGradient>
    <linearGradient id="linearGradient3598" inkscape:collect="always">
      <stop id="stop3600" offset="0" style="stop-color:#ffffff;stop-opacity:1"/>
      <stop id="stop3602" offset="1" style="stop-color:#ffffff;stop-opacity:0"/>
    </linearGradient>
    <linearGradient inkscape:collect="always" id="linearGradient2173">
      <stop style="stop-color:#ffffff;stop-opacity:0.87450981" offset="0" id="stop2175"/>
      <stop style="stop-color:#ffffff;stop-opacity:0" offset="1" id="stop2177"/>
    </linearGradient>
    <linearGradient inkscape:collect="always" id="linearGradient2165">
      <stop style="stop-color:#1f2259;stop-opacity:1;" offset="0" id="stop2167"/>
      <stop style="stop-color:#2fb5ea;stop-opacity:1" offset="1" id="stop2169"/>
    </linearGradient>
    <radialGradient inkscape:collect="always" xlink:href="#linearGradient2173" id="radialGradient4325" gradientUnits="userSpaceOnUse" gradientTransform="matrix(0.162441,2.106734,-1.6909162,0.2626576,228.26265,-371.42976)" cx="180.72482" cy="38.594139" fx="180.72482" fy="38.594139" r="28.884468"/>
    <radialGradient inkscape:collect="always" xlink:href="#linearGradient3598" id="radialGradient4327" gradientUnits="userSpaceOnUse" gradientTransform="matrix(-1.0178578,0,6.2330308e-7,-1.182413,391.62431,74.388699)" cx="194.07924" cy="26.293318" fx="194.07924" fy="26.293318" r="28.884468"/>
    <linearGradient inkscape:collect="always" xlink:href="#linearGradient4448" id="linearGradient4456" x1="181.99649" y1="36.387283" x2="183.27852" y2="53.875359" gradientUnits="userSpaceOnUse"/>
    <radialGradient cx="246.84595" cy="165.74794" fx="246.84595" fy="165.74794" gradientTransform="scale(1.003037,0.996972)" gradientUnits="userSpaceOnUse" id="radialGradient4215" r="280.08582" xlink:href="#linearGradient1708"/>
    <radialGradient cx="269.58505" cy="188.82213" fx="269.58505" fy="188.82213" gradientUnits="userSpaceOnUse" id="radialGradient4214" r="250.60762" xlink:href="#linearGradient4206"/>
    <radialGradient cx="269.58505" cy="188.82213" fx="269.58505" fy="188.82213" gradientUnits="userSpaceOnUse" id="radialGradient4210" r="250.60762" xlink:href="#linearGradient4206"/>
    <radialGradient cx="246.84595" cy="165.74794" fx="246.84595" fy="165.74794" gradientTransform="scale(1.003037,0.996972)" gradientUnits="userSpaceOnUse" id="radialGradient1712" r="280.08582" xlink:href="#linearGradient1708"/>
    <linearGradient id="linearGradient1708">
      <stop id="stop1709" offset="0.00000000" style="stop-color:#5e6700;stop-opacity:1.0000000;"/>
      <stop id="stop1710" offset="1.0000000" style="stop-color:#005f00;stop-opacity:1.0000000;"/>
    </linearGradient>
    <linearGradient id="linearGradient4206">
      <stop id="stop4207" offset="0.00000000" style="stop-color:#0089af;stop-opacity:1.0000000;"/>
      <stop id="stop4208" offset="1.0000000" style="stop-color:#00005c;stop-opacity:1.0000000;"/>
    </linearGradient>
    <linearGradient inkscape:collect="always" xlink:href="#linearGradient2165" id="linearGradient1461" gradientUnits="userSpaceOnUse" x1="194.68881" y1="31.85433" x2="194.68881" y2="74.711746"/>
    <linearGradient gradientUnits="userSpaceOnUse" y2="141.79462" x2="42.925163" y1="159.77208" x1="21.739183" gradientTransform="matrix(1.201332,0,0,0.832409,-2.8181013,-4.4875176)" id="linearGradient3544" xlink:href="#linearGradient8789" inkscape:collect="always"/>
    <linearGradient gradientUnits="userSpaceOnUse" y2="80.245102" x2="84.935219" y1="13.401171" x1="59.630257" gradientTransform="matrix(1.153026,0,0,0.867283,-2.8181013,-4.4875176)" id="linearGradient3552" xlink:href="#linearGradient8789" inkscape:collect="always"/>
    <linearGradient gradientUnits="userSpaceOnUse" y2="137.72624" x2="7.6904998" y1="71.676041" x1="32.348618" gradientTransform="matrix(1.153026,0,0,0.867283,-2.8181013,-4.4875176)" id="linearGradient3554" xlink:href="#linearGradient8789" inkscape:collect="always"/>
    <linearGradient gradientUnits="userSpaceOnUse" y2="118.51865" x2="123.33012" y1="163.4713" x1="69.566849" gradientTransform="matrix(1.153026,0,0,0.867283,-2.8181013,-4.4875176)" id="linearGradient3556" xlink:href="#linearGradient8789" inkscape:collect="always"/>
  </defs>
  <sodipodi:namedview inkscape:window-height="579" inkscape:window-width="871" inkscape:pageshadow="2" inkscape:pageopacity="0.0" guidetolerance="10.0" gridtolerance="10.0" objecttolerance="10.0" borderopacity="1.0" bordercolor="#666666" pagecolor="#ffffff" id="base" inkscape:zoom="1.8536222" inkscape:cx="121.98777" inkscape:cy="82.442309" inkscape:window-x="91" inkscape:window-y="45" inkscape:current-layer="svg2"/>
  <g id="layer1" transform="matrix(0.171973,0,0,0.171973,185.2809,-8.7691846)"/>
  <path style="fill:url(#linearGradient2391);fill-opacity:1;fill-rule:evenodd;stroke:#3d7311;stroke-width:2;stroke-linecap:butt;stroke-linejoin:miter;stroke-miterlimit:4;stroke-dasharray:none;stroke-opacity:1;display:inline" d="M 86.250692,12.458146 C 79.090539,12.975488 76.802062,7.7891714 69.047807,17.663986 C 61.362329,27.450946 57.943866,37.433951 57.943866,37.433951 L 30.064188,41.598991 C 30.064188,41.598991 32.322895,29.496292 36.753199,24.010878 C 41.858439,15.445313 51.091935,7.1741704 62.395635,3.6477923 C 73.699325,0.12141429 93.283389,11.950024 86.250692,12.458146 z " id="path2333" sodipodi:nodetypes="czccczz"/>
  <path sodipodi:type="arc" style="fill:#ffffff;fill-opacity:1;stroke:none;stroke-width:1.25;stroke-miterlimit:4;stroke-opacity:1;display:inline" id="path3519" sodipodi:cx="193.56345" sodipodi:cy="56.485737" sodipodi:rx="28.884468" sodipodi:ry="28.884468" d="M 222.44791 56.485737 A 28.884468 28.884468 0 1 1  164.67898,56.485737 A 28.884468 28.884468 0 1 1  222.44791 56.485737 z" transform="matrix(0.45017,0,0,-0.164983,3.4422527,144.60868)"/>
  <path style="fill:url(#linearGradient3544);fill-opacity:1;fill-rule:evenodd;stroke:#3d7311;stroke-width:2;stroke-linecap:butt;stroke-linejoin:miter;stroke-miterlimit:4;stroke-dasharray:none;stroke-opacity:1;display:inline" d="M 13.352692,98.338542 C 17.380801,104.28074 14.033548,108.85578 26.46252,110.63376 C 38.781021,112.39609 49.135793,110.36507 49.135793,110.36507 L 66.682645,132.42706 C 66.682645,132.42706 55.072043,136.52232 48.106399,135.42826 C 38.135771,135.28977 26.356008,131.42891 17.650232,123.40281 C 8.9444467,115.3767 9.3962817,92.502126 13.352692,98.338542 z " id="path2381" sodipodi:nodetypes="czccczz"/>
  <path style="fill:url(#linearGradient2377);fill-opacity:1;fill-rule:evenodd;stroke:#3d7311;stroke-width:2;stroke-linecap:butt;stroke-linejoin:miter;stroke-miterlimit:4;stroke-dasharray:none;stroke-opacity:1;display:inline" d="M 123.41946,118.05283 C 126.55151,111.59328 132.18722,112.20455 127.51251,100.55177 C 122.87949,89.002472 115.94319,81.050494 115.94319,81.050494 L 126.27601,54.823474 C 126.27601,54.823474 135.6279,62.830918 138.16325,69.410374 C 143.02863,78.114428 145.5749,90.246434 142.97697,101.79892 C 140.37907,113.35139 120.34317,124.39738 123.41946,118.05283 z " id="path2365" sodipodi:nodetypes="czccczz"/>
  <path transform="matrix(2.083575,0,0,2.083512,-329.062,-40.401928)" d="M 222.44791 56.485737 A 28.884468 28.884468 0 1 1  164.67898,56.485737 A 28.884468 28.884468 0 1 1  222.44791 56.485737 z" sodipodi:ry="28.884468" sodipodi:rx="28.884468" sodipodi:cy="56.485737" sodipodi:cx="193.56345" id="path3523" style="fill:url(#linearGradient10509);fill-opacity:1;stroke:none;stroke-width:1.25;stroke-miterlimit:4;stroke-opacity:1;display:inline" sodipodi:type="arc"/>
  <path style="opacity:0.78365383;fill:#ffffff;fill-opacity:1;display:inline" id="path3525" d="M 68.902774,135.81261 C 65.216464,135.39624 60.874647,134.5426 60.657675,134.19154 C 60.526051,133.97857 61.126007,133.66699 61.990917,133.49915 C 64.059641,133.0977 64.095226,133.0976 67.258869,133.4845 C 69.057851,133.7045 70.095625,133.63624 70.313578,133.28359 C 70.546207,132.9072 71.212065,132.97691 72.568581,133.51968 C 74.29461,134.2103 75.643896,134.24255 77.882488,133.64669 C 78.308004,133.53342 78.551899,133.72977 78.469369,134.11917 C 78.370116,134.58752 78.586419,134.67645 79.197461,134.4185 C 79.675559,134.21665 80.722015,134.0869 81.522909,134.13014 L 82.979073,134.20875 L 81.809298,133.38487 L 80.639523,132.56098 L 81.750523,132.15 C 82.459319,131.88779 83.106474,131.94231 83.538165,132.30057 C 84.406619,133.02133 90.378437,132.50713 92.77663,131.5051 C 93.72684,131.10808 95.187502,130.7755 96.022529,130.76604 C 96.857563,130.75658 98.086829,130.43668 98.754239,130.05516 C 100.10327,129.28399 101.1812,129.12822 101.1812,129.70445 C 101.1812,130.1419 96.422374,132.2616 92.201485,133.70423 C 86.46947,135.66335 75.98298,136.6123 68.902774,135.81261 z M 81.867922,128.02315 C 80.12418,127.30673 79.149771,125.57439 79.939372,124.59453 C 80.284253,124.16655 80.23203,123.9856 79.762123,123.98036 C 79.293998,123.97513 79.262184,123.86691 79.655103,123.61631 C 79.962637,123.42018 80.362334,122.16757 80.543325,120.83276 C 80.724315,119.49793 81.157675,117.42289 81.506356,116.22155 C 81.855027,115.02021 82.136958,113.60044 82.132848,113.06652 C 82.124929,112.03814 82.550135,108.80001 83.046191,106.11097 C 83.443663,103.95629 82.486109,102.28492 80.180221,101.10855 C 79.157416,100.58675 78.201738,99.787452 78.056503,99.332322 C 77.334972,97.071372 75.656735,93.686782 74.319336,91.795391 C 73.013761,89.949003 73.905037,86.003471 76.062909,84.076919 C 77.36509,82.914327 77.587605,82.406007 77.457357,80.891416 C 77.372113,79.900218 77.126116,78.980022 76.91069,78.846541 C 76.695273,78.713061 76.498154,78.38542 76.472664,78.118459 C 76.447175,77.851488 76.153281,77.633064 75.81958,77.633064 C 75.485869,77.633064 75.265494,77.900252 75.329849,78.226799 C 75.481636,78.996971 72.571692,78.458976 71.661261,77.548555 C 71.307292,77.194582 70.814865,76.904978 70.566965,76.904978 C 70.319073,76.904978 70.116251,76.615412 70.116251,76.2615 C 70.116251,75.221444 68.066681,73.639613 66.233132,73.264557 C 65.298749,73.073423 64.055512,72.477643 63.470365,71.940582 C 62.757158,71.285989 61.59515,70.920341 59.945147,70.831316 C 57.416197,70.694856 54.815313,69.456776 55.325038,68.632024 C 55.483112,68.376252 54.958249,68.167962 54.155677,68.167962 C 52.337126,68.167962 51.776318,67.354305 52.957651,66.429772 C 53.451576,66.043215 53.617824,65.784719 53.327098,65.855334 C 52.88647,65.962345 51.020795,64.067447 49.630277,62.100587 C 49.441547,61.833626 48.623394,60.850704 47.812178,59.91633 L 46.337236,58.217468 L 47.098321,59.794982 C 47.516918,60.662625 48.054979,61.372505 48.294019,61.372505 C 48.533049,61.372505 48.611366,61.678049 48.468062,62.051493 C 48.324759,62.424937 48.440829,62.874671 48.725993,63.05092 C 49.011157,63.22716 49.244475,63.719954 49.244475,64.146018 C 49.244475,64.820689 49.119167,64.807284 48.273695,64.042146 C 47.739763,63.558948 47.302916,62.862963 47.302916,62.495514 C 47.302916,62.128065 46.968771,61.699202 46.560363,61.542485 C 46.106935,61.368479 45.925633,60.91785 46.094727,60.385087 C 46.247023,59.905245 46.144311,59.372161 45.86649,59.200455 C 45.588669,59.028741 45.361356,58.496194 45.361356,58.017012 C 45.361356,57.53782 44.835154,56.577966 44.192015,55.884008 C 42.408031,53.959058 41.917282,50.850269 42.982714,48.223386 C 43.960941,45.811534 44.15018,43.898471 43.41055,43.898471 C 43.131334,43.898471 43.042771,43.393055 43.20718,42.737944 C 43.367385,42.099659 43.262335,41.431492 42.97374,41.253132 C 42.68341,41.073696 42.449018,41.266866 42.449018,41.685568 C 42.449018,42.101771 42.222327,42.442297 41.94526,42.442297 C 41.668184,42.442297 41.483734,41.950842 41.535354,41.350169 C 41.713479,39.27758 41.475316,38.559179 40.610086,38.559179 C 39.507862,38.559179 36.083885,40.289846 35.583134,41.100081 C 35.374382,41.437855 35.031791,41.716864 34.821832,41.720097 C 34.611874,41.723331 33.430353,42.424585 32.196223,43.278456 C 30.962101,44.132317 29.824113,44.702674 29.667358,44.545928 C 29.510612,44.389173 30.081977,43.789443 30.937083,43.213195 C 31.79218,42.636938 32.56649,41.736292 32.657758,41.211758 C 32.749036,40.687215 33.624249,39.548661 34.602673,38.68163 C 35.581107,37.8146 35.969596,37.24874 35.46598,37.42416 C 34.071654,37.909818 34.731149,36.504689 36.243882,35.766756 C 36.929583,35.432253 37.621203,34.667765 37.780833,34.067894 C 38.164552,32.625841 41.517566,30.311987 43.254662,30.290504 C 44.0129,30.281125 45.943826,29.99498 47.545613,29.654642 C 49.1474,29.314285 51.262465,29.090206 52.245773,29.156663 C 53.715078,29.255982 54.021735,29.120116 53.967032,28.394042 C 53.913074,27.677658 53.739785,27.610936 53.050729,28.041261 C 52.583367,28.333137 52.050698,28.421671 51.86704,28.238003 C 51.403053,27.774026 52.604615,26.424438 53.481666,26.424438 C 53.90427,26.424438 54.093019,26.139793 53.938111,25.736108 C 53.764096,25.282641 54.284643,24.778931 55.463693,24.259865 C 56.448047,23.826514 56.816561,23.571468 56.282639,23.693081 C 55.001479,23.98491 52.129326,24.991077 51.071275,25.518721 C 50.607712,25.749899 49.788616,25.939044 49.251064,25.939044 C 48.713512,25.939044 48.273695,26.131582 48.273695,26.366898 C 48.273695,26.788701 44.813916,28.177126 42.449018,28.704384 C 41.398112,28.938673 41.463146,28.818475 42.934412,27.807208 C 48.190345,24.194548 52.862517,22.205422 60.064101,20.514412 C 63.75634,19.647438 66.054734,19.46213 73.271277,19.449555 C 81.978308,19.434388 88.510659,20.216334 87.077316,21.102189 C 86.717531,21.324553 86.240263,21.393452 86.01673,21.255296 C 85.793197,21.117149 83.342026,20.938374 80.569672,20.858012 C 76.338891,20.735391 75.572197,20.824368 75.797616,21.411815 C 75.94534,21.79676 76.339975,22.006662 76.674582,21.878262 C 77.508016,21.558446 81.428058,23.603962 83.963927,25.681905 C 85.113906,26.624226 86.238519,27.395218 86.463079,27.395218 C 86.68764,27.395218 87.154907,27.849231 87.501457,28.404138 C 88.053177,29.287589 88.013331,29.443967 87.18099,29.661627 C 85.931183,29.988457 85.590148,31.961049 86.391013,34.230946 C 86.742927,35.228374 86.92518,36.150136 86.796027,36.279299 C 86.352241,36.723084 83.483924,34.977947 81.613555,33.126176 C 80.583689,32.106558 79.507568,31.416634 79.222177,31.593015 C 78.935637,31.770103 78.843134,31.687404 79.015612,31.408329 C 79.187402,31.130367 78.99279,30.624771 78.583139,30.284782 C 78.173477,29.944802 77.950604,29.373994 78.087855,29.01632 C 78.228067,28.650936 78.018391,28.365998 77.609324,28.365998 C 77.208872,28.365998 76.755509,28.038357 76.601846,27.637915 C 76.448174,27.237464 76.089991,26.909824 75.805864,26.909824 C 75.521746,26.909824 74.934827,26.589046 74.5016,26.196984 C 73.921109,25.671649 73.336509,25.59683 72.279128,25.912565 C 71.489989,26.148201 71.134493,26.359772 71.489131,26.382716 C 72.535559,26.450428 76.010666,30.253901 75.860482,31.167121 C 75.784569,31.628742 75.866411,32.235278 76.042359,32.514984 C 76.218306,32.7947 76.164527,33.340764 75.922848,33.728461 C 75.549376,34.327578 75.171746,34.269265 73.406577,33.339887 C 72.264309,32.738489 70.960365,32.247023 70.508935,32.247768 C 69.409237,32.249569 68.899682,31.342183 69.805258,30.994681 C 70.201986,30.842441 70.651305,30.392849 70.803752,29.995593 C 71.011749,29.453535 70.839431,29.349937 70.113196,29.580446 C 69.400451,29.806656 69.145471,29.665813 69.145471,29.045891 C 69.145471,28.58296 69.001744,28.347917 68.826088,28.523582 C 68.650424,28.699237 68.268175,28.645082 67.976657,28.403233 C 67.610613,28.099564 67.448438,28.487931 67.452548,29.658385 C 67.456441,30.766595 67.753992,31.518649 68.312188,31.831028 C 68.781717,32.093794 69.06362,32.474261 68.938614,32.676509 C 68.813617,32.878757 69.300482,32.958675 70.020533,32.854087 C 70.903428,32.725857 72.040946,33.144266 73.513975,34.139093 C 75.197839,35.276309 75.734184,35.451191 75.855165,34.902459 C 76.094422,33.817335 76.548576,34.020563 78.616179,36.137975 C 79.661994,37.208988 80.730188,38.014435 80.989948,37.927851 C 81.537595,37.745305 82.804389,38.927109 83.973231,40.71098 C 84.791017,41.959071 85.977713,42.49158 85.397694,41.350169 C 85.228119,41.016467 85.542864,41.259089 86.097129,41.889333 C 86.651404,42.519586 87.101543,43.393291 87.097461,43.830892 C 87.091004,44.521947 87.028157,44.530827 86.619504,43.898471 C 86.201255,43.251288 86.143894,43.251288 86.103228,43.898471 C 86.071819,44.398157 85.980673,44.436221 85.812644,44.01982 C 85.421261,43.04987 83.317564,43.261026 83.397049,44.262282 C 83.439742,44.799994 83.063875,45.168451 82.37234,45.266818 C 81.771667,45.352261 81.280212,45.654148 81.280212,45.9377 C 81.280212,46.258977 80.548594,46.35511 79.338652,46.192821 C 77.753305,45.980176 77.395113,46.079777 77.3863,46.735652 C 77.380361,47.17743 76.948368,48.084957 76.426313,48.75237 C 75.904259,49.419782 75.472266,50.265622 75.466327,50.632015 C 75.457183,51.196649 75.327341,51.196649 74.614483,50.632015 C 73.834225,50.013998 73.835686,50.063327 74.634656,51.314378 C 75.583321,52.799822 75.419826,53.290552 73.41394,54.978404 C 72.044584,56.130636 71.597999,58.118697 72.573134,58.721358 C 73.286181,59.162052 74.068956,61.352605 73.716929,61.922188 C 73.29606,62.603176 72.019623,61.39822 71.275082,59.617074 C 70.815045,58.516527 70.223846,58.020566 69.105351,57.796863 C 66.72045,57.319877 65.747738,57.428566 65.747738,58.172023 C 65.747738,58.611076 65.40822,58.76588 64.79632,58.605873 C 63.697264,58.318456 60.744579,60.000425 59.680005,61.520323 C 58.74498,62.855252 58.757187,64.455078 59.717862,66.479545 C 60.611683,68.36314 61.335646,68.734878 63.332398,68.335529 C 64.33173,68.135657 64.880358,67.682294 65.078572,66.892552 C 65.237532,66.259207 65.616944,65.724295 65.921706,65.703877 C 66.226468,65.683449 66.857201,65.593689 67.323328,65.50441 C 68.589518,65.261892 68.79252,66.018489 67.916035,67.713421 C 67.484994,68.546968 67.255749,69.352376 67.406603,69.50323 C 67.557456,69.654075 67.430207,70.079535 67.123842,70.4487 C 66.662552,71.004511 66.881795,71.085174 68.39929,70.917946 C 71.404886,70.586733 71.998997,70.932492 71.97051,72.996333 C 71.922434,76.47998 73.05406,77.930436 75.00531,76.886163 C 75.648638,76.541856 76.234218,76.542403 76.879799,76.887897 C 78.128616,77.556257 78.186505,77.544454 79.247469,76.405632 C 79.752056,75.864037 80.579655,75.336778 81.086599,75.233953 C 81.593533,75.131128 82.426373,74.88186 82.937351,74.680027 C 83.588843,74.42269 83.761557,74.482719 83.515447,74.880927 C 83.322409,75.193268 83.395795,75.448804 83.678518,75.448804 C 83.961231,75.448804 84.19255,75.243333 84.19255,74.992199 C 84.19255,74.741074 84.777556,74.839101 85.492573,75.210057 C 86.20758,75.581012 87.005816,75.752727 87.266433,75.591664 C 87.527041,75.430592 87.599767,75.526159 87.428042,75.804017 C 87.256309,76.081876 87.60481,76.440285 88.202475,76.600471 C 89.729905,77.009859 90.117197,76.974028 89.795269,76.453124 C 89.641672,76.20461 89.77174,75.843223 90.084308,75.650043 C 90.439238,75.430686 90.522579,75.50921 90.306276,75.859201 C 89.984282,76.38019 90.660216,76.611736 92.322833,76.549991 C 92.656535,76.537586 92.933507,76.885428 92.938315,77.322954 C 92.950569,78.436616 96.258709,81.050075 98.121769,81.417929 C 99.999629,81.788697 101.66658,83.127566 101.66658,84.265055 C 101.66658,84.723895 101.89924,85.243103 102.18359,85.418843 C 102.52189,85.627925 102.40049,86.099236 101.83243,86.782316 C 101.35493,87.35648 101.27262,87.555778 101.6495,87.225206 C 102.20551,86.73752 102.91574,86.943511 105.41511,88.317334 C 107.1093,89.248578 108.89094,90.010502 109.3743,90.010502 C 109.85767,90.010502 110.63516,90.432625 111.10206,90.948553 C 111.56897,91.46447 112.2581,91.768742 112.63346,91.624704 C 113.12712,91.435257 113.31594,91.769006 113.31594,92.83128 C 113.31594,93.86651 112.67879,95.046183 111.15631,96.829822 C 109.96852,98.221362 108.84878,100.0412 108.66801,100.87391 C 108.16954,103.17014 105.99163,105.94224 104.21489,106.54195 C 103.34724,106.83482 102.63736,107.38009 102.63736,107.75368 C 102.63736,108.12727 102.03669,108.81911 101.30255,109.2911 C 100.56839,109.7631 99.573799,110.63651 99.092369,111.23203 C 96.708622,114.18053 94.111625,116.24856 93.031167,116.05866 C 92.192774,115.9113 91.953989,116.06803 92.060359,116.6959 C 92.21158,117.58853 91.165963,119.13389 90.410779,119.13389 C 90.158684,119.13389 88.76563,120.15849 87.315102,121.4108 C 85.563178,122.92328 84.872793,123.80823 85.258671,124.04671 C 85.666465,124.29874 85.485691,124.70496 84.652012,125.40991 C 83.538655,126.35135 83.51753,126.45536 84.313899,127.07467 C 84.781091,127.43798 85.16333,127.84949 85.16333,127.98915 C 85.16333,128.60474 83.329536,128.62366 81.867922,128.02315 z M 79.915051,44.53767 C 79.564664,44.397459 79.14602,44.4147 78.984721,44.57599 C 78.823432,44.737288 79.110114,44.852 79.621799,44.830932 C 80.187254,44.807639 80.302268,44.692625 79.915051,44.53767 z M 83.204567,42.336192 C 83.214031,42.144341 82.89413,42.113102 82.493688,42.266765 C 82.068228,42.430033 81.762514,42.272392 81.758168,41.887495 C 81.752117,41.35082 81.670605,41.355401 81.318116,41.912211 C 81.055726,42.326671 81.094083,43.053433 81.415577,43.759024 L 81.945664,44.922455 L 82.566518,43.803725 C 82.907987,43.188422 83.195112,42.528032 83.204567,42.336192 z M 67.689297,43.701097 C 67.689297,43.604098 67.190026,43.197594 66.579805,42.797765 C 65.584563,42.145652 65.367139,42.154352 64.468237,42.882237 C 63.49364,43.671422 63.524059,43.696186 65.577729,43.785569 C 66.739096,43.836115 67.689297,43.798097 67.689297,43.701097 z M 66.521897,41.202501 C 65.641113,40.558448 65.638983,40.512003 66.475622,40.190961 C 66.957915,40.005889 68.172165,40.073242 69.173968,40.340637 C 70.719185,40.753079 70.95305,40.71639 70.716046,40.09876 C 70.535197,39.627496 70.63559,39.493657 71.000692,39.719301 C 71.310912,39.911029 71.948697,39.844289 72.418,39.570993 C 73.19298,39.119685 73.176634,39.07274 72.239828,39.059335 C 71.449181,39.048014 71.208369,38.741782 71.208369,37.747605 C 71.208369,37.034275 70.798831,36.151163 70.298269,35.785147 C 69.797707,35.419131 69.442767,35.019858 69.509508,34.897859 C 69.8455,34.283744 69.551201,33.705281 68.902774,33.705281 C 68.502322,33.705281 68.174691,33.468654 68.174691,33.179446 C 68.174691,32.890229 67.901659,32.751507 67.567948,32.871159 C 67.234247,32.990811 66.573706,32.889305 66.100085,32.64558 C 65.431475,32.301509 64.960381,32.533498 63.992938,33.683251 C 63.307624,34.49769 62.571284,35.055509 62.356622,34.922849 C 62.141969,34.790179 61.842099,35.005398 61.690255,35.401117 C 61.538402,35.796827 61.570123,36.072149 61.760738,36.012941 C 61.951353,35.953732 62.717698,36.522062 63.463719,37.275889 C 64.312406,38.133455 65.110179,38.535179 65.595008,38.349126 C 66.596085,37.964983 68.272408,38.493777 67.910388,39.079518 C 67.757282,39.327258 67.304371,39.529959 66.90392,39.529959 C 66.477168,39.529959 66.319178,39.298036 66.522171,38.969575 C 66.738473,38.619585 66.655133,38.541061 66.300212,38.760418 C 65.987645,38.953597 65.857567,39.314985 66.011164,39.563498 C 66.164752,39.812021 66.059108,40.015353 65.776385,40.015353 C 65.493663,40.015353 65.262353,39.796929 65.262353,39.529959 C 65.262353,38.675946 63.442764,39.0111 63.208136,39.908342 C 62.941373,40.928414 64.071867,42.219688 64.551813,41.443125 C 64.767202,41.094623 65.05115,41.094821 65.471567,41.443738 C 65.80607,41.721351 66.22347,41.804767 66.399135,41.629112 C 66.57479,41.453447 66.718517,41.600964 66.718517,41.956912 C 66.718517,42.312861 66.881993,42.440619 67.0818,42.240823 C 67.281596,42.041016 67.029652,41.573768 66.521897,41.202501 z M 70.116251,38.587826 C 70.116251,38.336617 70.332176,37.997636 70.596083,37.834537 C 70.871227,37.664481 70.952598,37.85932 70.78684,38.291275 C 70.464158,39.132175 70.116251,39.286026 70.116251,38.587826 z M 64.020304,37.361143 C 63.502086,36.969185 63.333265,36.641554 63.645134,36.63306 C 64.567273,36.607957 65.747738,37.173469 65.747738,37.64033 C 65.747738,38.276466 65.089902,38.170143 64.020304,37.361143 z M 80.309432,42.095332 C 80.309432,42.03799 79.895519,41.76954 79.389622,41.498798 C 78.733832,41.147827 78.327706,41.177757 77.974727,41.603066 C 77.602433,42.05165 77.830566,42.19961 78.894537,42.19961 C 79.672731,42.19961 80.309432,42.152684 80.309432,42.095332 z M 73.02859,40.986133 C 73.02859,40.719171 72.688054,40.500738 72.27185,40.500738 C 71.855647,40.500738 71.650119,40.719171 71.815113,40.986133 C 71.980106,41.253094 72.320633,41.471518 72.571842,41.471518 C 72.823052,41.471518 73.02859,41.253094 73.02859,40.986133 z M 74.727451,40.986133 C 74.562458,40.719171 74.331138,40.500738 74.21341,40.500738 C 74.09569,40.500738 73.999369,40.719171 73.999369,40.986133 C 73.999369,41.253094 74.230679,41.471518 74.513402,41.471518 C 74.796124,41.471518 74.892445,41.253094 74.727451,40.986133 z M 58.95228,38.543012 C 58.336488,38.131381 58.430056,37.87411 59.559024,36.874862 C 60.293167,36.225068 60.89384,35.42276 60.89384,35.091962 C 60.89384,34.761164 60.584063,34.914167 60.205443,35.431961 C 59.826824,35.949754 59.353571,36.209929 59.153765,36.010122 C 58.953958,35.810316 59.045312,35.64684 59.356766,35.64684 C 59.668231,35.64684 59.92306,35.319209 59.92306,34.918758 C 59.92306,33.97671 59.004692,33.974703 58.643493,34.915977 C 58.490415,35.314882 58.166064,35.518214 57.922717,35.367822 C 57.679378,35.217421 57.605945,34.891044 57.759533,34.642521 C 57.91313,34.394007 57.820362,34.190675 57.553401,34.190675 C 57.28644,34.190675 56.930821,34.412662 56.763132,34.683979 C 56.595451,34.955295 56.231594,35.037212 55.954584,34.865997 C 55.629837,34.665295 55.68486,34.406479 56.109472,34.137434 C 56.645695,33.797662 56.63279,33.721966 56.039942,33.729922 C 55.118369,33.74228 52.662136,35.121024 53.520296,35.144251 C 53.869759,35.153716 54.033263,35.359508 53.883663,35.601574 C 53.734063,35.843649 54.103416,35.939168 54.704447,35.813851 L 55.797244,35.586001 L 54.678514,36.254469 L 53.559794,36.922947 L 54.908231,37.537335 C 55.880943,37.980536 56.307242,37.999984 56.438197,37.607111 C 56.569217,37.214041 56.815591,37.225042 57.32359,37.646646 C 57.890864,38.11743 57.905249,38.308309 57.39774,38.630255 C 56.987579,38.89043 57.275731,39.029708 58.224198,39.029708 C 59.358067,39.029708 59.519224,38.92199 58.95228,38.543012 z M 57.112934,36.809366 C 56.419362,36.05899 56.887732,35.915395 57.91197,36.564378 C 58.274178,36.793888 58.383394,37.095256 58.154667,37.234091 C 57.92594,37.372917 57.457165,37.181792 57.112934,36.809366 z M 76.166959,36.690365 C 75.893456,36.402458 74.970149,37.132133 74.970149,37.636183 C 74.970149,37.897922 75.27575,37.830427 75.649269,37.486196 C 76.022798,37.141965 76.255749,36.783839 76.166959,36.690365 z M 62.350014,37.397643 C 62.350014,37.292715 62.011024,37.076799 61.596715,36.91781 C 61.16476,36.752052 60.969922,36.833423 61.139968,37.108566 C 61.425019,37.569791 62.350014,37.79076 62.350014,37.397643 z M 54.965055,32.472527 C 55.384548,32.107218 55.144358,31.977451 54.095253,32.002611 C 53.29813,32.021737 52.262844,32.45998 51.794634,32.976492 C 50.960738,33.896415 50.964679,33.897932 51.987286,33.050745 C 53.073023,32.151249 53.958595,32.650718 53.362947,33.826629 C 53.193909,34.160341 53.35484,34.105732 53.720564,33.705281 C 54.086288,33.304839 54.646313,32.750093 54.965055,32.472527 z M 58.95228,33.191248 C 58.95228,32.908526 58.733857,32.812205 58.466895,32.977198 C 58.199925,33.142192 57.981501,33.373512 57.981501,33.49124 C 57.981501,33.60896 58.199925,33.705281 58.466895,33.705281 C 58.733857,33.705281 58.95228,33.473971 58.95228,33.191248 z M 56.394749,29.485793 C 55.922477,29.362729 55.267205,29.370817 54.938575,29.503779 C 54.609955,29.636741 54.996351,29.737427 55.797244,29.727538 C 56.598138,29.71765 56.867022,29.608857 56.394749,29.485793 z M 60.178596,28.94513 C 60.029156,28.795681 59.637491,28.944819 59.308229,29.276541 C 58.832421,29.755922 58.88818,29.81168 59.579951,29.548263 C 60.058652,29.36599 60.328046,29.09457 60.178596,28.94513 z M 65.747738,28.33735 C 65.747738,28.086141 65.565719,27.880603 65.343252,27.880603 C 65.120774,27.880603 64.938756,28.198638 64.938756,28.587334 C 64.938756,28.97604 65.120774,29.181578 65.343252,29.044081 C 65.565719,28.906585 65.747738,28.58856 65.747738,28.33735 z M 63.800815,27.385188 C 63.512106,26.845742 63.437136,26.135862 63.634209,25.807665 C 63.859712,25.432147 63.683567,25.461662 63.159023,25.887292 C 62.378011,26.521042 62.37688,26.62038 63.141075,27.464815 C 64.203906,28.639218 64.455681,28.608836 63.800815,27.385188 z M 61.338785,27.706192 C 61.227541,27.610267 60.481256,27.385207 59.680363,27.206064 C 58.61692,26.968184 58.420554,27.013215 58.95228,27.373037 C 59.60774,27.816597 61.825857,28.126242 61.338785,27.706192 z M 57.010721,26.380049 C 57.657904,25.922359 57.657904,25.888923 57.010721,26.079199 C 56.610279,26.196927 55.845782,26.068584 55.311859,25.793987 C 54.444046,25.347676 54.411732,25.380376 55.007248,26.102275 C 55.782972,27.042635 56.02616,27.076354 57.010721,26.380049 z M 59.437675,25.71159 C 59.437675,25.260593 59.155273,25.107099 58.668889,25.293746 C 58.04991,25.531268 58.026268,25.668727 58.54754,25.999167 C 59.40965,26.545655 59.437675,26.536596 59.437675,25.71159 z M 72.25196,25.453659 C 74.158914,25.453659 72.207127,24.389452 70.103157,24.282027 C 68.834742,24.217266 67.821863,23.864683 67.452293,23.359266 C 66.587318,22.17635 66.233132,22.348565 66.233132,23.952049 C 66.233132,25.108683 66.402538,25.318472 67.173671,25.116818 C 67.690965,24.981537 68.610379,25.21839 69.216802,25.643152 C 69.944988,26.153188 70.4827,26.252139 70.800292,25.934547 C 71.064784,25.670056 71.718038,25.453659 72.25196,25.453659 z M 61.379234,25.453659 C 61.379234,25.186698 61.147915,24.968264 60.865192,24.968264 C 60.58247,24.968264 60.486149,25.186698 60.651142,25.453659 C 60.816136,25.72062 61.047456,25.939044 61.165184,25.939044 C 61.282913,25.939044 61.379234,25.72062 61.379234,25.453659 z M 74.575768,20.753575 C 74.225381,20.613363 73.806727,20.630605 73.645438,20.791894 C 73.484139,20.953183 73.770831,21.067905 74.282506,21.046827 C 74.847961,21.023543 74.962975,20.90852 74.575768,20.753575 z M 87.441673,127.07512 C 86.924078,126.55752 87.586079,125.92934 88.649136,125.92934 C 89.484389,125.92934 89.550357,126.05025 89.046448,126.65743 C 88.393958,127.44363 87.930754,127.5642 87.441673,127.07512 z M 35.410863,115.26797 C 34.076047,113.7121 32.895837,112.52275 32.788185,112.62496 C 32.680542,112.72716 32.074403,112.1086 31.441208,111.25036 C 30.263835,109.65451 28.628122,108.5032 27.49463,108.47251 C 27.145177,108.46306 26.988836,108.66499 27.147213,108.92125 C 27.319239,109.19959 26.848314,109.1826 25.977579,108.87905 C 24.840175,108.48256 24.18413,107.66047 22.991156,105.13675 C 20.532624,99.935752 20.503241,99.807702 21.630285,99.204532 C 22.196494,98.901502 22.509382,98.376122 22.358217,97.982212 C 22.212416,97.602242 22.304683,97.291352 22.563264,97.291352 C 22.821855,97.291352 23.033425,96.949982 23.033425,96.532762 C 23.033425,96.024662 23.394068,95.824302 24.125554,95.926012 C 24.88316,96.031362 25.219577,95.828182 25.223866,95.262702 C 25.227278,94.814364 25.391094,94.286502 25.587912,94.089675 C 25.78473,93.892857 25.945764,93.969297 25.945764,94.259552 C 25.945764,94.549797 26.601045,94.931188 27.401938,95.107097 C 28.202832,95.283007 28.858103,95.702152 28.858103,96.038532 C 28.858103,96.374922 29.458775,96.951222 30.192928,97.319202 C 30.927082,97.687202 31.648141,98.053622 31.79529,98.133492 C 31.94244,98.213352 31.973142,97.510482 31.863539,96.571552 C 31.619333,94.479823 32.53459,94.274804 32.983919,96.320572 C 33.159819,97.121472 33.487874,97.776732 33.712925,97.776732 C 33.937976,97.776732 34.389745,98.595832 34.716858,99.596942 C 35.04397,100.59807 35.770789,101.88804 36.332012,102.46356 C 37.794228,103.96303 38.565899,104.96458 38.565899,105.36292 C 38.565899,105.55339 38.910064,106.08953 39.330708,106.55432 C 40.352551,107.68345 40.594362,111.32217 39.729613,112.55678 C 39.356536,113.08942 39.051294,113.90931 39.051294,114.37874 C 39.051294,114.88882 38.553249,115.35728 37.813609,115.54291 C 36.590753,115.84983 36.58784,115.86189 37.570921,116.55046 C 38.542389,117.23091 38.927928,118.19607 38.201853,118.12996 C 38.001632,118.11173 36.745689,116.82383 35.410863,115.26797 z M 39.218785,107.70629 C 39.060701,107.29433 38.827261,107.06138 38.70003,107.18861 C 38.57279,107.31584 38.612664,107.65291 38.788631,107.93763 C 39.267257,108.71205 39.547001,108.5616 39.218785,107.70629 z M 43.68969,117.23633 C 43.400935,116.76912 47.123169,114.77058 48.305595,114.75794 C 48.888894,114.75172 48.883728,114.67422 48.273695,114.27999 C 47.700181,113.90935 47.687295,113.80788 48.213026,113.80203 C 48.69497,113.79667 48.799502,113.38996 48.589204,112.33843 C 48.424917,111.517 48.50426,110.88226 48.771222,110.88226 C 49.031509,110.88226 49.244475,111.10069 49.244475,111.36765 C 49.244475,111.63462 49.701344,112.30991 50.259739,112.86831 L 51.275012,113.88358 L 50.13839,114.68497 C 49.513256,115.12574 48.89257,115.48831 48.75909,115.49067 C 48.6256,115.49304 47.827393,115.98609 46.985296,116.58635 C 45.375581,117.73375 44.14688,117.97609 43.68969,117.23633 z M 48.37077,105.4459 C 48.050417,105.12554 47.78831,104.68869 47.78831,104.47512 C 47.78831,103.75994 48.519381,104.07689 49.131827,105.05759 C 49.795573,106.12042 49.298772,106.3739 48.37077,105.4459 z M 124.72099,104.93624 C 124.91584,104.33556 125.27434,101.44143 125.51764,98.504832 C 125.77941,95.343799 126.26931,92.61067 126.7184,91.805468 C 127.35705,90.6604 127.38637,90.067957 126.9042,88.057754 C 126.58567,86.730139 126.47811,84.801891 126.66184,83.714504 C 126.96,81.949533 126.89335,81.75888 125.97869,81.75888 C 125.4015,81.75888 124.96533,81.445502 124.96533,81.030798 C 124.96533,80.113269 124.03304,80.120914 122.80655,81.04851 C 122.28657,81.441713 121.4757,81.641095 121.00465,81.49157 C 120.53351,81.342045 119.72631,81.445427 119.21086,81.721306 C 117.99323,82.37292 115.90298,80.804399 114.95023,78.524255 C 114.57901,77.635751 114.00483,76.962537 113.67424,77.028231 C 113.24477,77.113589 113.07324,76.226046 113.07324,73.917877 C 113.07324,72.1415 113.24515,70.794203 113.45517,70.923894 C 113.66519,71.053576 113.79123,70.431948 113.73514,69.542473 C 113.67915,68.653008 114.05084,67.160777 114.56119,66.226403 C 115.07164,65.292029 115.49198,64.1999 115.49537,63.799449 C 115.49867,63.399007 115.71963,63.101965 115.98621,63.139361 C 116.65428,63.233061 119.26082,61.330896 118.92477,60.994903 C 118.77535,60.845463 119.01507,60.32323 119.45746,59.834376 C 119.89985,59.345521 120.09206,58.945551 119.88449,58.945551 C 119.67691,58.945551 119.80691,58.563312 120.17332,58.09612 C 120.77709,57.326268 120.75994,57.309093 119.99007,57.912867 C 119.52288,58.27925 119.1133,58.443075 119.07993,58.276903 C 119.04656,58.110731 118.98708,57.701739 118.94767,57.368037 C 118.90836,57.034336 118.46748,56.832663 117.96806,56.919897 C 117.16312,57.060485 117.10025,56.867542 117.41519,55.221035 C 117.6106,54.199427 117.75172,52.850226 117.72891,52.22281 C 117.66405,50.445547 118.10842,50.151871 119.65354,50.95087 C 120.98363,51.6387 121.08214,51.628341 121.08214,50.800694 C 121.08214,50.311774 120.53615,49.171608 119.86865,48.266975 C 118.4244,46.309325 118.41818,46.281356 119.50469,46.622976 C 120.27324,46.864655 120.28022,46.82857 119.57784,46.243697 C 118.73595,45.542669 118.68307,45.40948 118.59889,43.777123 C 118.55656,42.955274 118.48765,42.895217 118.32062,43.534426 C 118.19854,44.001617 117.81252,44.383857 117.46279,44.383857 C 116.57066,44.383857 116.14119,42.445238 116.96337,42.12974 C 117.3263,41.990499 117.50342,41.56453 117.35703,41.183149 C 117.16378,40.679608 117.32818,40.58077 117.95741,40.822204 C 118.63678,41.082925 118.75443,40.973925 118.50236,40.317108 C 118.29978,39.789256 118.37067,39.596765 118.69391,39.796543 C 118.97595,39.970897 119.08389,40.433819 118.93372,40.825268 C 118.78346,41.216707 119.19965,42.502477 119.85847,43.682536 C 120.5172,44.862596 120.94611,46.213032 120.8115,46.683495 C 120.67246,47.16954 120.80858,47.081354 121.12682,46.479267 C 121.58985,45.603319 121.4987,45.115087 120.6011,43.66274 C 120.00392,42.696448 119.6097,41.811432 119.72508,41.696041 C 120.01109,41.410075 122.8419,45.473091 123.24781,46.752205 C 123.42748,47.318367 123.73356,47.78159 123.92784,47.78159 C 124.67094,47.78159 129.81918,59.241207 129.81918,60.895377 C 129.81918,61.320545 129.46691,61.177393 128.82948,60.493248 C 127.94046,59.538927 126.90683,59.083415 126.90683,59.645891 C 126.90683,59.979998 128.92186,63.314064 129.12378,63.314064 C 129.22257,63.314064 129.16592,62.955947 128.99794,62.518251 C 128.74738,61.865195 128.85258,61.811992 129.58465,62.221681 C 130.0753,62.496268 130.51967,63.127408 130.57218,63.624227 C 130.62469,64.121047 130.80615,65.182812 130.97545,65.983705 C 131.14475,66.784599 131.60317,69.674663 131.99428,72.406077 C 132.76283,77.774322 132.38539,84.696803 130.98931,90.838346 C 130.61271,92.494996 130.30333,94.570036 130.30182,95.449547 C 130.2973,98.126672 129.35115,100.77543 128.30122,101.04997 C 127.77531,101.18751 126.80588,102.36393 126.14696,103.66421 C 124.90151,106.12199 124.1061,106.83151 124.72099,104.93624 z M 127.96657,58.354993 C 127.61835,58.006699 127.39221,57.978042 127.39221,58.282182 C 127.39221,58.930072 127.96629,59.504105 128.29019,59.18016 C 128.4281,59.04223 128.28255,58.670907 127.96657,58.354993 z M 126.68795,58.338817 C 126.28204,56.488093 124.62164,53.615487 123.95518,53.611207 C 123.06729,53.605485 121.83853,55.632761 122.15479,56.581557 C 122.27291,56.9358 122.78977,57.247613 123.30333,57.274478 C 125.82598,57.406441 126.41693,57.518222 126.36396,57.853423 C 126.27525,58.415446 126.40006,58.945551 126.62121,58.945551 C 126.73103,58.945551 126.7611,58.672519 126.68795,58.338817 z M 58.466895,102.83288 C 58.466895,102.41018 58.726268,102.15081 59.043294,102.25648 C 59.943308,102.55648 60.092588,103.60141 59.235427,103.60141 C 58.812729,103.60141 58.466895,103.25558 58.466895,102.83288 z M 60.17065,102.15317 C 60.002969,101.88184 60.206292,101.65985 60.622495,101.65985 C 61.475103,101.65985 61.600637,101.95112 60.927379,102.36721 C 60.678857,102.5208 60.338339,102.42448 60.17065,102.15317 z M 50.013063,100.8623 C 49.606711,99.803352 50.146252,99.311142 50.719606,100.21774 C 51.293601,101.12535 51.305818,101.65985 50.75258,101.65985 C 50.514172,101.65985 50.181394,101.30095 50.013063,100.8623 z M 45.846751,95.850412 C 45.846751,95.591832 45.519111,95.505984 45.118659,95.659642 C 44.233982,95.999132 44.15395,95.179654 45.002976,94.475025 C 45.456678,94.098489 45.75931,94.271769 46.170781,95.143673 C 46.476259,95.790972 46.528313,96.320572 46.286464,96.320572 C 46.044625,96.320572 45.846751,96.109002 45.846751,95.850412 z M 36.371273,95.225901 C 35.843054,94.934732 35.125444,94.297437 34.776604,93.809677 C 34.101376,92.865556 32.741221,92.597284 32.741221,93.408236 C 32.741221,93.675197 32.304374,93.893621 31.770442,93.893621 C 31.23651,93.893621 30.799662,93.675197 30.799662,93.408236 C 30.799662,93.141274 30.362815,92.922841 29.828883,92.922841 C 29.294951,92.922841 28.858103,92.704417 28.858103,92.437456 C 28.858103,92.170495 29.078374,91.952061 29.347608,91.952061 C 30.306067,91.952061 28.679082,90.104938 27.026467,89.316855 C 25.92199,88.790163 25.459031,88.287169 25.641389,87.811955 C 25.804129,87.387871 25.632151,87.098163 25.217682,87.098163 C 24.797001,87.098163 24.63098,87.387192 24.799452,87.826255 C 25.002755,88.356039 24.742016,88.554337 23.842086,88.554337 C 23.161872,88.554337 22.470337,88.335914 22.305343,88.068943 C 22.140349,87.801982 22.455094,87.583558 23.004778,87.583558 C 23.554462,87.583558 24.031504,87.365134 24.064884,87.098163 C 24.098254,86.831202 24.152853,86.412557 24.186223,86.167833 C 24.284618,85.44634 24.974985,84.940348 24.974985,85.589747 C 24.974985,85.916963 25.168663,86.06498 25.405375,85.918688 C 25.642086,85.772378 26.105686,85.977916 26.435589,86.375426 C 26.765492,86.772927 26.85577,87.098163 26.636206,87.098163 C 26.416642,87.098163 26.489849,87.351022 26.7989,87.660064 C 27.224492,88.085666 27.533091,88.078973 28.071104,87.632454 C 28.641093,87.159399 29.250457,87.280634 31.155846,88.246163 C 32.461789,88.907939 33.816344,89.794067 34.165967,90.215333 C 34.51559,90.636608 35.403435,90.981282 36.138955,90.981282 C 37.490173,90.981282 38.82711,89.948126 38.238099,89.359105 C 38.062434,89.18345 38.16065,89.039723 38.456353,89.039723 C 39.491572,89.039723 39.577779,90.006986 38.632951,91.021137 C 37.993789,91.707196 37.35937,91.942654 36.707483,91.735759 C 35.00961,91.196878 34.90671,92.500312 36.53244,93.952905 C 38.120605,95.371928 38.023775,96.136782 36.371273,95.225901 z M 42.151156,93.80436 C 41.925408,93.439098 42.065647,93.343512 42.552936,93.530517 C 42.964643,93.688498 43.521887,93.59738 43.791252,93.328006 C 44.120665,92.998603 44.387777,93.011017 44.607134,93.365938 C 44.786503,93.656165 44.865762,93.909853 44.78327,93.929696 C 43.242992,94.300086 42.433718,94.26155 42.151156,93.80436 z M 20.299146,92.362694 C 20.067732,91.99055 19.285409,91.309064 18.560645,90.848282 C 16.704858,89.66843 16.010316,88.260162 17.081498,87.849115 C 17.535662,87.674836 17.749608,87.68988 17.556938,87.88256 C 17.065492,88.373997 18.685359,90.055165 19.290169,89.681363 C 19.569423,89.508781 19.638369,89.613491 19.44815,89.921279 C 19.24396,90.251653 19.597882,90.589738 20.343931,90.776979 C 21.673874,91.110775 21.791848,91.347147 21.141139,92.374345 C 20.785502,92.935755 20.654368,92.933936 20.299146,92.362694 z M 21.872709,92.232286 C 22.018463,91.852479 22.472778,91.413152 22.882307,91.256001 C 23.41607,91.05118 23.542886,91.189233 23.330165,91.743564 C 23.166953,92.168873 23.033425,92.6082 23.033425,92.719849 C 23.033425,92.831497 22.712638,92.922841 22.320576,92.922841 C 21.903572,92.922841 21.717698,92.636253 21.872709,92.232286 z M 40.507458,91.952061 C 39.852828,90.728875 40.399863,90.728875 41.963632,91.952061 C 43.16427,92.891224 43.165731,92.901367 42.102053,92.912048 C 41.510779,92.917986 40.793207,92.485993 40.507458,91.952061 z M 24.974985,91.738021 C 24.974985,91.620292 25.193408,91.388973 25.460379,91.223979 C 25.72734,91.058985 25.945764,91.155306 25.945764,91.438029 C 25.945764,91.720751 25.72734,91.952061 25.460379,91.952061 C 25.193408,91.952061 24.974985,91.85574 24.974985,91.738021 z M 26.714117,91.046429 C 26.505026,90.708108 26.465028,90.300229 26.625243,90.140005 C 27.059649,89.705599 27.533298,90.344505 27.29867,91.04839 C 27.134261,91.541627 27.019925,91.541241 26.714117,91.046429 z M 19.966584,89.208817 C 19.784595,89.026827 19.609854,87.87681 19.578265,86.653228 C 19.529907,84.779842 19.472423,84.654129 19.214219,85.85717 C 19.045587,86.642924 18.743794,87.243597 18.543573,87.191996 C 18.343343,87.140394 17.985415,87.098163 17.748157,87.098163 C 16.762153,87.098163 16.707733,83.782225 17.655408,81.446699 C 18.587294,79.150087 18.716429,79.187256 18.91023,81.80788 C 19.048009,83.671094 19.609816,84.303949 20.906068,84.056152 C 21.666455,83.910794 22.062646,84.061412 22.062646,84.495828 C 22.062646,84.859261 21.57119,85.170452 20.970517,85.187373 L 19.878389,85.218141 L 20.970517,85.657119 C 21.57119,85.898562 22.059299,86.376171 22.055218,86.718488 C 22.049496,87.19752 21.951676,87.189187 21.630502,86.682299 C 21.400993,86.320092 21.091112,86.22131 20.94187,86.462782 C 20.792638,86.704254 20.871199,87.219031 21.11646,87.606728 C 21.361721,87.994435 21.548491,88.639281 21.531504,89.039723 C 21.507315,89.609966 21.443573,89.62437 21.237488,89.106152 C 21.052208,88.64027 20.874215,88.606523 20.635911,88.992099 C 20.449773,89.293279 20.148574,89.390807 19.966584,89.208817 z M 68.255591,87.583558 C 68.499909,86.850593 69.28046,86.775057 69.509508,87.462209 C 69.620751,87.795911 69.347719,88.068943 68.902774,88.068943 C 68.457829,88.068943 68.166594,87.850519 68.255591,87.583558 z M 27.440257,86.895916 C 27.41918,86.38424 27.533901,86.097558 27.69519,86.258847 C 27.85648,86.420136 27.873721,86.838781 27.73351,87.189177 C 27.578564,87.576384 27.463541,87.46137 27.440257,86.895916 z M 15.4771,84.064476 C 14.921081,79.515396 14.913097,79.308077 15.285165,79.078125 C 15.474451,78.961141 15.779647,80.226332 15.963371,81.889665 C 16.147086,83.552998 16.416923,85.405372 16.563007,86.006035 C 16.709081,86.606707 16.607943,87.098163 16.338248,87.098163 C 16.068553,87.098163 15.681035,85.733003 15.4771,84.064476 z M 22.997359,86.976815 C 22.632305,85.748679 22.639968,84.427871 23.015892,83.783648 C 23.377496,83.163943 23.492784,83.459533 23.504058,85.035255 C 23.512174,86.16986 23.409603,87.098163 23.276123,87.098163 C 23.142642,87.098163 23.017193,87.043564 22.997359,86.976815 z M 44.875971,82.96195 C 44.875971,82.555777 44.329907,81.974655 43.662494,81.670562 C 42.606498,81.189419 41.981458,80.302706 42.698304,80.302706 C 43.14587,80.302706 45.109874,81.504221 45.475277,82.001577 C 45.99259,82.705707 45.925887,83.700439 45.361356,83.700439 C 45.094395,83.700439 44.875971,83.368114 44.875971,82.96195 z M 20.606481,79.817321 C 20.254228,79.159137 20.248732,78.846541 20.5894,78.846541 C 20.86576,78.846541 21.091866,78.506005 21.091866,78.089802 C 21.091866,77.673608 21.31029,77.468071 21.577261,77.633064 C 22.199642,78.017726 22.21464,80.788101 21.594332,80.788101 C 21.33676,80.788101 20.89223,80.351244 20.606481,79.817321 z M 18.186955,78.268446 C 18.191047,77.918992 18.406124,77.30542 18.664922,76.904978 C 19.047453,76.313054 19.136836,76.375778 19.142879,77.240367 C 19.14696,77.825292 18.931883,78.43885 18.664922,78.603844 C 18.397951,78.768838 18.182874,78.617909 18.186955,78.268446 z M 15.204549,76.78363 C 15.012246,71.940506 16.728962,60.837017 17.724854,60.482624 C 17.974923,60.393627 18.179527,59.830624 18.179527,59.231478 C 18.179527,57.916421 20.437547,52.16544 21.308197,51.263032 C 21.823417,50.729015 21.981879,50.754118 22.233409,51.409587 C 22.42672,51.913354 22.343832,52.081185 22.005087,51.87183 C 21.653079,51.654273 21.579872,51.87905 21.788558,52.536584 C 21.999855,53.202319 21.787248,53.825021 21.14408,54.424223 C 20.122661,55.37582 19.150307,57.523143 19.150307,58.827228 C 19.150307,59.486534 19.267649,59.461346 19.862958,58.674281 C 20.254906,58.156073 20.582547,57.131411 20.59104,56.397258 C 20.599534,55.663105 20.824905,55.062432 21.091866,55.062432 C 21.969473,55.062432 21.59881,58.389259 20.485132,60.508123 C 19.549834,62.287592 19.370729,62.429151 19.237899,61.493853 C 19.152588,60.893181 18.905027,60.401725 18.687772,60.401725 C 17.740446,60.401725 17.275545,66.395789 18.179527,66.954485 C 18.986934,67.453491 18.772819,69.284005 17.944239,68.966056 C 16.874905,68.555706 16.377321,69.960496 16.33575,73.507245 C 16.279568,78.300138 16.272234,78.361147 15.752583,78.361147 C 15.485612,78.361147 15.239003,77.651267 15.204549,76.78363 z M 19.74603,76.706596 C 19.895159,75.926431 19.774546,75.612261 19.383493,75.762314 C 18.614254,76.057499 17.945719,72.090729 18.646587,71.389861 C 18.994617,71.041831 19.150307,71.3205 19.150307,72.291487 C 19.150307,73.150703 19.650624,74.219048 20.437783,75.040661 C 21.513028,76.162973 21.623244,76.507393 21.10643,77.130123 C 20.181483,78.244625 19.492992,78.030283 19.74603,76.706596 z M 76.814623,68.556272 C 77.267656,68.103239 77.52653,68.103239 77.979563,68.556272 C 78.432586,69.009305 78.303159,69.138741 77.397093,69.138741 C 76.491027,69.138741 76.3616,69.009305 76.814623,68.556272 z M 79.824047,68.625689 C 79.824047,68.316817 80.133607,68.182884 80.511953,68.328073 C 80.890308,68.473261 81.325619,68.264368 81.479311,67.86385 C 81.648528,67.422864 81.999405,67.285462 82.368908,67.515481 C 82.704505,67.724384 83.449668,67.834543 84.024842,67.76028 C 84.600015,67.686008 85.213574,67.856563 85.388315,68.139296 C 85.565563,68.42609 85.317823,68.666695 84.827932,68.68354 C 84.344988,68.700141 83.02155,68.820273 81.886945,68.950502 C 80.512226,69.108294 79.824047,68.999935 79.824047,68.625689 z M 86.52242,68.556272 C 86.975453,68.103239 87.234326,68.103239 87.687359,68.556272 C 88.140382,69.009305 88.010955,69.138741 87.104889,69.138741 C 86.198823,69.138741 86.069396,69.009305 86.52242,68.556272 z M 75.322675,65.942737 C 74.582197,65.541136 73.729354,65.365207 73.427467,65.551778 C 73.091503,65.759418 73.012941,65.673627 73.224927,65.330621 C 73.445085,64.974399 73.196704,64.770228 72.543195,64.770228 C 71.977759,64.770228 71.621189,64.941849 71.750823,65.15161 C 71.880467,65.361371 71.565713,65.532991 71.051388,65.532991 C 69.760246,65.532991 69.879898,64.857104 71.284329,64.217208 C 72.226829,63.787769 73.023612,63.906478 75.410145,64.831878 C 78.317704,65.959309 79.191776,66.730641 77.518442,66.692359 C 77.05125,66.68167 76.063163,66.344339 75.322675,65.942737 z M 118.65526,59.459593 C 118.65526,59.17687 118.87367,58.945551 119.14064,58.945551 C 119.4076,58.945551 119.62601,59.041872 119.62601,59.159601 C 119.62601,59.277329 119.4076,59.508649 119.14064,59.673643 C 118.87367,59.838636 118.65526,59.742306 118.65526,59.459593 z M 119.62601,50.479879 C 119.62601,50.36215 119.84443,50.13084 120.11139,49.965846 C 120.37835,49.800853 120.59676,49.897174 120.59676,50.179887 C 120.59676,50.462609 120.37835,50.693929 120.11139,50.693929 C 119.84443,50.693929 119.62601,50.597608 119.62601,50.479879 z M 23.51882,48.081573 C 23.51882,47.681131 23.737244,47.218501 24.004205,47.053508 C 24.271166,46.888504 24.489599,47.081156 24.489599,47.481607 C 24.489599,47.882049 24.271166,48.344679 24.004205,48.509672 C 23.737244,48.674666 23.51882,48.482024 23.51882,48.081573 z M 25.460379,48.052935 C 25.460379,47.935206 25.678803,47.703886 25.945764,47.538893 C 26.212725,47.373899 26.431159,47.47022 26.431159,47.752943 C 26.431159,48.035665 26.212725,48.266975 25.945764,48.266975 C 25.678803,48.266975 25.460379,48.170654 25.460379,48.052935 z M 28.372718,45.383284 C 28.372718,45.10057 28.591142,44.869251 28.858103,44.869251 C 29.125064,44.869251 29.343498,44.965572 29.343498,45.083301 C 29.343498,45.20102 29.125064,45.43234 28.858103,45.597333 C 28.591142,45.762327 28.372718,45.666006 28.372718,45.383284 z M 29.089762,40.968269 C 28.925456,40.70242 28.533083,40.639611 28.217829,40.828699 C 27.891283,41.024546 27.931298,40.819084 28.310795,40.351223 C 29.003565,39.497173 30.565628,39.243984 30.982312,39.918203 C 31.114284,40.131734 30.809664,40.564113 30.305378,40.879037 C 29.713143,41.248899 29.282724,41.280488 29.089762,40.968269 z M 93.264126,34.135294 C 92.78073,33.854108 92.059501,33.749039 91.661397,33.901797 C 91.252688,34.058637 91.066682,33.970668 91.234136,33.699729 C 91.397245,33.435821 91.262972,33.219896 90.935756,33.219896 C 89.859681,33.219896 90.957937,32.577303 92.273777,32.437007 C 93.785333,32.27585 96.487757,33.538345 96.07183,34.211348 C 95.697962,34.816272 94.373138,34.780385 93.264126,34.135294 z "/>
  <path d="M 222.44791 56.485737 A 28.884468 28.884468 0 1 1  164.67898,56.485737 A 28.884468 28.884468 0 1 1  222.44791 56.485737 z" sodipodi:ry="28.884468" sodipodi:rx="28.884468" sodipodi:cy="56.485737" sodipodi:cx="193.56345" id="path3527" style="opacity:0.7692308;fill:url(#radialGradient10505);fill-opacity:1;stroke:url(#linearGradient10507);stroke-width:0.86460912;stroke-miterlimit:4;stroke-opacity:1;display:inline" sodipodi:type="arc" transform="matrix(1.171988,-0.209572,0.147654,0.825718,-167.4896,39.237292)"/>
  <path transform="matrix(-1.423145,0.623821,-0.45596,-1.040197,386.9011,39.024152)" sodipodi:type="arc" style="fill:url(#radialGradient10503);fill-opacity:1;stroke:none;stroke-width:1.25;stroke-miterlimit:4;stroke-opacity:1;display:inline" id="path3529" sodipodi:cx="193.56345" sodipodi:cy="56.485737" sodipodi:rx="28.884468" sodipodi:ry="28.884468" d="M 222.44791 56.485737 A 28.884468 28.884468 0 1 1  164.67898,56.485737 A 28.884468 28.884468 0 1 1  222.44791 56.485737 z"/>
  <path style="fill:url(#linearGradient3552);fill-opacity:1;fill-rule:evenodd;stroke:#3d7311;stroke-width:2;stroke-linecap:butt;stroke-linejoin:miter;stroke-miterlimit:4;stroke-dasharray:none;stroke-opacity:1;display:inline" d="M 54.558897,6.8552784 C 73.745516,9.3201454 88.492951,27.554988 91.430835,35.166958 C 85.909647,38.444888 80.063666,40.509973 80.063666,40.509973 L 114.34669,56.526672 L 129.03877,22.8982 L 118.78308,26.043988 C 109.49368,11.305914 95.763169,5.0347562 85.876909,1.9768897 C 75.990649,-1.0809768 58.180757,3.7378352 54.558897,6.8552784 z " id="path2335" sodipodi:nodetypes="cccccczc"/>
  <path style="opacity:1;fill:url(#linearGradient3556);fill-opacity:1;fill-rule:evenodd;stroke:#3d7311;stroke-width:2;stroke-linecap:butt;stroke-linejoin:miter;stroke-miterlimit:4;stroke-dasharray:none;stroke-opacity:1;display:inline" d="M 144.11759,93.408371 C 132.38964,108.79202 109.22408,112.44626 101.16298,111.18456 C 101.0848,104.76411 102.21938,98.668792 102.21938,98.668792 L 71.206998,120.35042 L 92.984066,149.88837 L 95.387585,139.43378 C 112.79583,138.75796 125.09207,130.00258 132.68338,122.96975 C 140.27471,115.93693 145.00644,98.103712 144.11759,93.408371 z " id="path2367" sodipodi:nodetypes="cccccczc"/>
  <path style="fill:url(#linearGradient3554);fill-opacity:1;fill-rule:evenodd;stroke:#3d7311;stroke-width:2;stroke-linecap:butt;stroke-linejoin:miter;stroke-miterlimit:4;stroke-dasharray:none;stroke-opacity:1;display:inline" d="M 24.346352,128.58588 C 16.887696,110.73734 25.30581,88.848262 30.429026,82.498005 C 36.028388,85.640532 40.739793,89.670752 40.739793,89.670752 L 37.46915,51.972427 L 1,56.06294 L 8.8521787,63.37175 C 0.7333309,78.78564 2.1675976,93.812187 4.462541,103.90287 C 6.7574845,113.99356 19.835648,127.00797 24.346352,128.58588 z " id="path2383" sodipodi:nodetypes="cccccczc"/>
</svg>